<?xml version="1.0" encoding="utf-8"?>
<!-- Generator: Adobe Illustrator 15.1.0, SVG Export Plug-In . SVG Version: 6.00 Build 0)  -->
<!DOCTYPE svg PUBLIC "-//W3C//DTD SVG 1.1//EN" "http://www.w3.org/Graphics/SVG/1.1/DTD/svg11.dtd">
<svg version="1.1" id="Layer_1" xmlns="http://www.w3.org/2000/svg" xmlns:xlink="http://www.w3.org/1999/xlink" x="0px" y="0px"
	 width="210px" height="120px" viewBox="0 0 210 120" enable-background="new 0 0 210 120" xml:space="preserve">
<g>
	<path fill="#49B99D" d="M32.333,96.199h26.321V29.421H35.832V11.24C49.159,8.595,57.822,5.289,66.484,0h21.824v96.199h22.323V120
		H32.333V96.199z"/>
	<path fill="#49B99D" d="M124.49,103.297l13.055-18.161c6.771,6.485,15.15,11.513,24.66,11.513c11.603,0,18.856-5.838,18.856-17.188
		c0-11.19-7.254-17.353-17.568-17.353c-6.608,0-9.832,1.459-16.923,6l-12.571-8.269L137.061,0h67.369v24.162h-42.71l-1.771,20.433
		c4.351-1.784,7.896-2.433,12.409-2.433c20.308,0,37.393,11.514,37.393,36.487c0,26.107-20.308,41.352-43.355,41.352
		C147.216,120,133.999,112.702,124.49,103.297z"/>
</g>
</svg>
