<?xml version="1.0" encoding="utf-8"?>
<!-- Generator: Adobe Illustrator 15.1.0, SVG Export Plug-In . SVG Version: 6.00 Build 0)  -->
<!DOCTYPE svg PUBLIC "-//W3C//DTD SVG 1.1//EN" "http://www.w3.org/Graphics/SVG/1.1/DTD/svg11.dtd">
<svg version="1.1" id="Layer_1" xmlns="http://www.w3.org/2000/svg" xmlns:xlink="http://www.w3.org/1999/xlink" x="0px" y="0px"
	 width="210px" height="120px" viewBox="0 0 210 120" enable-background="new 0 0 210 120" xml:space="preserve">
<g>
	<path fill="#49B99D" d="M0,60.621C0,22.072,25.949,0,56.872,0c16.937,0,29.056,7.149,36.98,15.077l-14.605,17.72
		c-5.75-5.129-11.81-9.015-21.443-9.015c-17.093,0-29.368,13.367-29.368,35.908c0,23.004,10.255,36.371,31.854,36.371
		c4.04,0,8.391-1.088,10.877-2.951V74.456H52.832V51.761h43.042v54.093C87.792,113.626,73.497,120,57.337,120
		C25.328,120,0,99.794,0,60.621z"/>
	<path fill="#49B99D" d="M114.127,60.621C114.127,22.072,140.077,0,170.999,0c16.936,0,29.057,7.149,36.981,15.077l-14.607,17.72
		c-5.748-5.129-11.809-9.015-21.443-9.015c-17.091,0-29.367,13.367-29.367,35.908c0,23.004,10.256,36.371,31.853,36.371
		c4.041,0,8.393-1.088,10.876-2.951V74.456h-18.332V51.761H210v54.093C201.919,113.626,187.625,120,171.464,120
		C139.455,120,114.127,99.794,114.127,60.621z"/>
</g>
</svg>
